# xmcd CD database file
#
# Track frame offsets:
#	150
#	129170
#	189455
#
# Disc length: 3064 seconds
#
# Revision: 3
# Processed by: cddbd v1.5.2PL0 Copyright (c) Steve Scherf et al.
# Submitted via: CDex 1.51
#
DISCID=1d0bf603
DTITLE=Wadada Leo Smith - Anthony Braxton - Saturn, Conjunct the Grand Canyon in a Sweet Embrace
DYEAR=2003
DGENRE=Jazz
TTITLE0=Composition no 316
TTITLE1=Saturn, Conjunct the Grand Canyon in a Sweet Embrace
TTITLE2=Goshawk
EXTD=recorded live at tonic, nyc april05 2003\npi recordings pi 10\n\nwadada leo smith - trumpet, flugelhorn\nanthony braxton - f saxophone, eb alto sax\nbflat soprano sax, eflat sopranino sax YEAR: 2003
EXTT0=
EXTT1=
EXTT2=
PLAYORDER=
